<?xml version="1.0" standalone="no"?>
<!DOCTYPE svg PUBLIC "-//W3C//DTD SVG 20010904//EN"
 "http://www.w3.org/TR/2001/REC-SVG-20010904/DTD/svg10.dtd">
<svg version="1.0" xmlns="http://www.w3.org/2000/svg"
 width="700.000000pt" height="700.000000pt" viewBox="0 0 700.000000 700.000000"
 preserveAspectRatio="xMidYMid meet">
<metadata>
Created by potrace 1.14, written by Peter Selinger 2001-2017
</metadata>
<g transform="translate(0.000000,700.000000) scale(0.100000,-0.100000)"
fill="#000000" stroke="none">
<path d="M0 4366 l0 -2634 1992 5 c1096 2 1994 5 1996 7 2 2 -12 14 -30 27
l-33 24 35 5 35 6 -50 50 c-27 28 -61 58 -74 67 l-24 16 21 18 c20 17 24 40
49 304 l26 287 -84 108 c-46 60 -110 140 -143 177 l-58 69 42 141 c24 78 46
148 50 156 6 10 15 0 33 -35 l25 -49 163 -22 c90 -11 168 -18 173 -15 6 3 31
6 56 7 62 2 72 9 58 40 -13 29 -19 30 -60 9 -25 -13 -35 -14 -57 -4 -14 7 -82
29 -151 49 l-125 37 -41 122 c-27 79 -51 133 -68 151 -20 21 -26 37 -26 74 0
45 1 47 29 47 27 0 28 2 35 63 3 34 2 76 -3 92 -5 17 -6 55 -3 84 5 51 4 53
-16 42 -11 -6 -40 -11 -64 -11 -64 0 -116 -18 -134 -46 -16 -24 -16 -43 2
-170 7 -48 18 -36 -178 -175 -70 -49 -135 -101 -146 -117 -34 -47 -89 -280
-79 -332 4 -18 -2 -39 -18 -66 -32 -52 -32 -81 1 -96 23 -11 29 -10 45 10 10
13 21 44 25 70 3 26 10 52 14 57 5 6 20 57 35 114 14 57 32 116 40 131 13 26
62 66 71 58 2 -3 -16 -69 -41 -148 -57 -184 -62 -210 -41 -210 20 0 20 -2 1
-47 -9 -20 -15 -59 -14 -87 1 -34 -7 -68 -23 -104 l-24 -53 -105 108 c-58 59
-204 211 -325 338 -120 126 -249 262 -286 301 -58 60 -66 72 -54 85 8 7 219
338 471 734 484 763 556 875 560 875 2 0 22 -33 46 -72 23 -40 173 -275 332
-523 160 -247 452 -702 650 -1010 197 -308 386 -600 418 -650 33 -49 58 -94
55 -100 -2 -5 -57 -73 -122 -150 -388 -457 -714 -855 -714 -870 0 -3 637 -5
1415 -5 l1415 0 0 2635 0 2635 -3500 0 -3500 0 0 -2634z m3706 -1808 l71 -60
7 -257 c4 -141 11 -260 16 -265 6 -6 -27 -87 -44 -103 -1 -2 -70 74 -152 169
-82 95 -182 208 -223 251 l-74 78 25 27 c36 38 88 121 142 230 l47 93 57 -51
c31 -28 89 -79 128 -112z"/>
<path d="M0 830 l0 -830 3500 0 3500 0 0 830 0 830 -3500 0 -3500 0 0 -830z
m3799 314 c30 -32 33 -41 28 -78 -19 -136 -217 -124 -217 14 0 42 15 67 53 91
46 29 93 19 136 -27z m-1063 -379 c15 -23 15 -27 0 -50 -19 -29 -51 -32 -78
-8 -22 20 -23 46 -2 67 24 24 61 20 80 -9z"/>
</g>
</svg>
